<svg id="surface" xmlns="http://www.w3.org/2000/svg" width="156.355" height="123.852" viewBox="0 0 156.355 123.852">
  <path id="Path_124" data-name="Path 124" d="M173.172,130.824l-.1.08v1.465l.1.1h1.465l.1-.1V130.9l-.1-.08h-1.465" transform="translate(-57.306 -64.357)" fill="#006a3b"/>
  <path id="Path_125" data-name="Path 125" d="M172.18,135.134l-.155.036v8.576a2.076,2.076,0,0,1-2.051,2.344,2.268,2.268,0,0,1-1.953-.781l-.08-.04-.253.137-.04.1a2.565,2.565,0,0,0,2.384,1.678c1.642,0,3.44-.741,3.44-3.787v-8.5l-.08-.1-1.212.333" transform="translate(-56.12 -65.227)" fill="#006a3b"/>
  <path id="Path_126" data-name="Path 126" d="M151.364,132.466l.1-.1V130.9l-.1-.08H149.9l-.1.08v1.465l.1.1h1.465" transform="translate(-52.216 -64.357)" fill="#006a3b"/>
  <path id="Path_127" data-name="Path 127" d="M147.887,132.466l.1-.1V130.9l-.1-.08h-1.465l-.1.08v1.465l.1.1h1.465" transform="translate(-51.456 -64.357)" fill="#006a3b"/>
  <path id="Path_128" data-name="Path 128" d="M151.573,137.567c0-1.975-1.447-3.067-3.4-3.067s-3.4,1.074-3.4,3.067v3.045c0,1.975,1.447,3.067,3.4,3.067s3.4-1.074,3.4-3.067v-3.045m-1.429,2.752a1.975,1.975,0,1,1-3.942,0v-2.46a1.974,1.974,0,1,1,3.942,0Zm0,0" transform="translate(-51.116 -65.161)" fill="#006a3b"/>
  <path id="Path_129" data-name="Path 129" d="M165.456,128.737l-.08.022-.076.076v13.517a3.084,3.084,0,0,0,1.425-2.286V128.5l-.116-.076-1.154.311" transform="translate(-55.606 -63.832)" fill="#006a3b"/>
  <path id="Path_130" data-name="Path 130" d="M157.92,135.112l-.155.04v8.594a2.092,2.092,0,0,1-2.051,2.362,2.265,2.265,0,0,1-1.953-.8l-.1-.04-.275.137-.036.1a2.557,2.557,0,0,0,2.38,1.678c1.642,0,3.44-.741,3.44-3.787v-8.5l-.08-.1-1.172.311" transform="translate(-52.993 -65.227)" fill="#006a3b"/>
  <path id="Path_131" data-name="Path 131" d="M185.545,134.735l-1.172.311a4.871,4.871,0,0,0-2.033-.546c-1.816,0-3.494,1.074-3.516,3.067v3.006a2.917,2.917,0,0,0,3.01,3.107,2.386,2.386,0,0,0,2.46-1.385l-.1.781v.6a2.076,2.076,0,0,1-2.051,2.344,2.247,2.247,0,0,1-1.953-.781l-.1-.04-.253.137-.04.1a2.565,2.565,0,0,0,2.384,1.678c1.642,0,3.436-.741,3.436-3.787v-8.5l-.076-.1M184.217,142a2.983,2.983,0,0,1-1.78.409,1.99,1.99,0,0,1-2.188-2.069v-2.463a2.03,2.03,0,0,1,2.131-2.091,1.65,1.65,0,0,1,1.816,1.877V142Zm0,0" transform="translate(-58.564 -65.161)" fill="#006a3b"/>
  <path id="Path_132" data-name="Path 132" d="M135.979,128.737l-.076.022-.08.076v13.517a3.084,3.084,0,0,0,1.425-2.286V128.5l-.116-.076-1.154.311" transform="translate(-49.159 -63.832)" fill="#006a3b"/>
  <path id="Path_133" data-name="Path 133" d="M121.548,128.491l-.08-.076-1.172.311-.076.022-.08.076v11.564l.155.528h-9.784a.916.916,0,0,1-.47-.706v-3.689c0-1.367.763-2.091,1.856-2.091h1.624a4.067,4.067,0,0,1,2.011.488l.1-.058.058-.235a2.249,2.249,0,0,0-2.344-1.483H111.88a2.952,2.952,0,0,0-3.223,3.063v3.147a1.8,1.8,0,0,0,.666,1.541h-5.744v-2.38c0-1.993-1.447-3.067-3.4-3.067s-3.4,1.074-3.4,3.067v2.38H91.234V128.473l-.1-.1-1.172.333-.076.018-.079.08v12.812c0,1.349-.409,2.832-2.814,2.832-3.064,0-2.869-2.557-2.869-2.557a4.254,4.254,0,0,1,.076-.919,3.289,3.289,0,0,1,.372-1.034l-.04-.12-.177-.076-.116.04a4.2,4.2,0,0,0-.919,2.575s-.272,3.418,3.711,3.418c4.16,0,4.16-3.436,4.16-3.436H97a3.685,3.685,0,0,0,6.33,0h17.362l1.194-.275.1-.1-.448-1.563.018-11.915m-19.377,12.287a1.85,1.85,0,0,1-1.993,2.091,1.826,1.826,0,0,1-1.971-2.091v-1.953a1.81,1.81,0,0,1,1.971-2.069,1.833,1.833,0,0,1,1.993,2.069Zm0,0" transform="translate(-37.676 -63.821)" fill="#006a3b"/>
  <path id="Path_134" data-name="Path 134" d="M98.46,203.023l-.061.062v.857l.061.058h.858l.04-.058v-.857l-.04-.062H98.46" transform="translate(-40.974 -80.148)" fill="#8a6d43"/>
  <path id="Path_135" data-name="Path 135" d="M32.41,203.023l-.058.062v.857l.058.058h.858l.061-.058v-.857l-.061-.062H32.41" transform="translate(-26.529 -80.148)" fill="#8a6d43"/>
  <path id="Path_136" data-name="Path 136" d="M96.433,203.023l-.058.062v.857l.058.058h.861l.04-.058v-.857l-.04-.062h-.861" transform="translate(-40.531 -80.148)" fill="#8a6d43"/>
  <path id="Path_137" data-name="Path 137" d="M34.433,203.023l-.058.062v.857l.058.058h.861l.04-.058v-.857l-.04-.062h-.861" transform="translate(-26.971 -80.148)" fill="#8a6d43"/>
  <path id="Path_138" data-name="Path 138" d="M106.263,203.023l-.036.062v.857l.036.058h.861l.058-.058v-.857l-.058-.062h-.861" transform="translate(-42.686 -80.148)" fill="#8a6d43"/>
  <path id="Path_139" data-name="Path 139" d="M124.7,191.29l-.058-.04-.684.177-.04.018-.04.04v6.739l.1.311H117.9a.579.579,0,0,1-.275-.409v-2.149a1.063,1.063,0,0,1,1.1-1.212h.937a2.454,2.454,0,0,1,1.172.275l.058-.022.04-.138a1.292,1.292,0,0,0-1.367-.857H118.7a1.717,1.717,0,0,0-1.874,1.776v1.838a1.047,1.047,0,0,0,.391.9H112.9V194.2l-.062-.036-.684.173-.1.022v5c0,.781-.409,1.367-1.19,1.367a1.284,1.284,0,0,1-1.132-.47l-.058-.018-.159.08-.018.058a1.789,1.789,0,0,0,1.6.977c.919,0,1.718-.413,1.8-2.011h11.347l.7-.177.062-.058-.257-.9-.058-6.912" transform="translate(-43.402 -77.573)" fill="#8a6d43"/>
  <path id="Path_140" data-name="Path 140" d="M131.1,191.427l-.04.018-.058.04v7.871a1.763,1.763,0,0,0,.821-1.327V191.29l-.04-.04-.684.177" transform="translate(-48.104 -77.573)" fill="#8a6d43"/>
  <path id="Path_141" data-name="Path 141" d="M104.308,194.87l-.062-.036-.684.173-.036.022-.062.058v3.827l.1.315H99.327a.98.98,0,0,1-1.114-1.114v-3.223l-.058-.04-.684.177-.04.018-.058.058v3.027a.982.982,0,0,1-1.114,1.114H93.174a.98.98,0,0,1-1.114-1.114v-3.613L92,194.462l-.684.177a2.9,2.9,0,0,0-1.193-.315,1.878,1.878,0,0,0-2.051,1.78v1.758a1.688,1.688,0,0,0,1.758,1.794,1.448,1.448,0,0,0,1.447-.8,1.482,1.482,0,0,0,1.5,1.212H96.61a1.519,1.519,0,0,0,1.172-.51,1.492,1.492,0,0,0,1.172.51H103.8l.706-.177.058-.058-.253-.9V194.87m-13.069,3.773a1.779,1.779,0,0,1-1.035.231,1.155,1.155,0,0,1-1.27-1.208v-1.429a1.174,1.174,0,0,1,1.248-1.208.96.96,0,0,1,1.056,1.092Zm0,0" transform="translate(-38.716 -78.245)" fill="#8a6d43"/>
  <path id="Path_142" data-name="Path 142" d="M92.35,192.807l.058-.058v-.839l-.058-.058h-.861l-.04.058v.839l.04.058h.861" transform="translate(-39.454 -77.704)" fill="#8a6d43"/>
  <path id="Path_143" data-name="Path 143" d="M90.323,192.807l.058-.058v-.839l-.058-.058h-.858l-.04.058v.839l.04.058h.858" transform="translate(-39.011 -77.704)" fill="#8a6d43"/>
  <path id="Path_144" data-name="Path 144" d="M27.147,192.807l.061-.058v-.839l-.061-.058H26.29l-.04.058v.839l.04.058h.858" transform="translate(-25.194 -77.704)" fill="#8a6d43"/>
  <path id="Path_145" data-name="Path 145" d="M29.174,192.807l.058-.058v-.839l-.058-.058h-.861l-.04.058v.839l.04.058h.861" transform="translate(-25.637 -77.704)" fill="#8a6d43"/>
  <path id="Path_146" data-name="Path 146" d="M73.057,191.29,73,191.25l-.684.177-.04.018-.058.04v6.739l.076.311H70.069a4.9,4.9,0,0,1-1.367-.2,2.257,2.257,0,0,0,.116-.759v-2.774H68.8l-.079-.058-.665.173-.037.022-.021.018V197.4a1.033,1.033,0,0,1-1.093,1.19,5.447,5.447,0,0,1-1.074-.231,2.728,2.728,0,0,0,.116-.723v-2.872l-.058-.058-.665.173-.037.022-.04.04v2.42c0,.879-.412,1.212-1,1.212a6.433,6.433,0,0,1-1.053-.235v-3.574l-.079-.058-.662.173-.04.022-.04.04V198.1l-.1.373h-5.86a.529.529,0,0,1-.275-.409V195.92a1.063,1.063,0,0,1,1.1-1.212h.937a2.522,2.522,0,0,1,1.172.271l.058-.018.021-.137a1.319,1.319,0,0,0-1.367-.857H57.1a1.7,1.7,0,0,0-1.874,1.776v1.838a1.072,1.072,0,0,0,.391.9H52.2c-.372,0-.51-.058-.607-.155V194.14l-.04-.04-.684.177a2.778,2.778,0,0,0-1.19-.333,1.875,1.875,0,0,0-2.051,1.78v1.758a1.718,1.718,0,0,0,1.758,1.816,1.405,1.405,0,0,0,1.425-.8l-.058.452v.351a1.2,1.2,0,0,1-1.212,1.367,1.285,1.285,0,0,1-1.132-.47l-.058-.018-.156.076-.021.062a1.77,1.77,0,0,0,1.6.977c.937,0,1.758-.43,1.8-2.131a1.95,1.95,0,0,0,.723.137H62.647l.058-.04.293-.8a1.371,1.371,0,0,0,1.444.839,1.3,1.3,0,0,0,1.27-.763,1.592,1.592,0,0,0,1.5.763,1.493,1.493,0,0,0,1.349-.763,1.555,1.555,0,0,0,1.425.763h2.539l.7-.177.061-.058-.256-.9V191.29m-22.267,7.089a1.735,1.735,0,0,1-1.035.235,1.169,1.169,0,0,1-1.27-1.212v-1.447a1.177,1.177,0,0,1,1.251-1.208.958.958,0,0,1,1.053,1.092Zm0,0" transform="translate(-29.869 -77.573)" fill="#8a6d43"/>
  <path id="Path_147" data-name="Path 147" d="M34.451,194.865l-.058-.036-.684.173-.04.022-.058.058v3.827l.076.315H29.977a.979.979,0,0,1-1.111-1.114V194.5l-.061-.058-.684.173a2.92,2.92,0,0,0-1.19-.311,1.848,1.848,0,0,0-2.033,1.776v1.758a1.69,1.69,0,0,0,1.758,1.8,1.508,1.508,0,0,0,1.465-.8,1.479,1.479,0,0,0,1.5,1.208h4.3l.705-.173.037-.058-.253-.9.04-4.044m-6.388,1.6v2.188a1.686,1.686,0,0,1-1.035.235,1.159,1.159,0,0,1-1.27-1.212v-1.447a1.175,1.175,0,0,1,1.251-1.208.958.958,0,0,1,1.053,1.092Zm0,0" transform="translate(-24.898 -78.24)" fill="#8a6d43"/>
  <path id="Path_148" data-name="Path 148" d="M43.874,196.577A1.716,1.716,0,0,0,42,194.8h-.861a1.3,1.3,0,0,0-1.367.857l.04.138.058.022a2.334,2.334,0,0,1,1.172-.275h.94c.644,0,1.074.43,1.074,1.212V199l.1.311H40.438a4.279,4.279,0,0,1-1.483-.235l-.079.159a1.566,1.566,0,0,0,1.465.9h3.046l.705-.177.058-.058L43.9,199v-2.424" transform="translate(-27.955 -78.349)" fill="#8a6d43"/>
  <path id="Path_149" data-name="Path 149" d="M82.324,191.427l-.04.018-.058.04v7.871a1.766,1.766,0,0,0,.818-1.327V191.29l-.076-.04-.644.177" transform="translate(-37.437 -77.573)" fill="#8a6d43"/>
  <path id="Path_150" data-name="Path 150" d="M139.118,192.807l.04-.058v-.839l-.04-.058h-.861l-.058.058v.839l.058.058h.861" transform="translate(-49.679 -77.704)" fill="#8a6d43"/>
  <path id="Path_151" data-name="Path 151" d="M141.142,192.807l.062-.058v-.839l-.062-.058h-.857l-.058.058v.839l.058.058h.857" transform="translate(-50.122 -77.704)" fill="#8a6d43"/>
  <path id="Path_152" data-name="Path 152" d="M187.212,191.25l-.666.177-.04.018-.058.04v7.871a1.763,1.763,0,0,0,.821-1.327V191.29l-.058-.04" transform="translate(-60.232 -77.573)" fill="#8a6d43"/>
  <path id="Path_153" data-name="Path 153" d="M173.991,191.29l-.058-.04-.684.177-.04.018-.04.04v6.739l.08.311h-3.165v-1.385a1.982,1.982,0,0,0-3.946,0v1.385H163v-1.385a1.982,1.982,0,0,0-3.946,0v1.385h-2.167c-.608,0-1.114-.235-1.114-1.132V191.29l-.04-.04-.684.177-.04.018-.058.04V197.4a.994.994,0,0,1-1.114,1.132H150.9a1.047,1.047,0,0,0,.391-.9v-1.154a1.717,1.717,0,0,0-1.874-1.776H145.59c-.662,0-.955-.315-.955-1.016v-.448c.018-.666.311-.959.955-.959h.568a2.5,2.5,0,0,1,1.172.275l.058-.022.022-.134a1.32,1.32,0,0,0-1.367-.861h-.452a1.59,1.59,0,0,0-1.776,1.6v.7a1.59,1.59,0,0,0,1.776,1.6h3.791c.644,0,1.074.43,1.074,1.212v1.465a.579.579,0,0,1-.275.409H142c-.608,0-1.114-.235-1.114-1.132v-3.6l-.058-.058-.684.2a2.819,2.819,0,0,0-1.194-.311,1.878,1.878,0,0,0-2.051,1.776v1.758a1.7,1.7,0,0,0,1.758,1.8,1.45,1.45,0,0,0,1.447-.8,1.48,1.48,0,0,0,1.5,1.19h12.519a1.471,1.471,0,0,0,1.172-.506,1.534,1.534,0,0,0,1.172.506h2.659a2.123,2.123,0,0,0,3.671,0h3.476a2.123,2.123,0,0,0,3.671,0H173.5l.7-.155.062-.058-.257-.9V191.29m-33.964,4.51v2.188a1.685,1.685,0,0,1-1.034.235,1.158,1.158,0,0,1-1.27-1.212v-1.447a1.174,1.174,0,0,1,1.248-1.208.96.96,0,0,1,1.056,1.092Zm22.111,2.659a1.155,1.155,0,1,1-2.308,0v-1.136a1.155,1.155,0,1,1,2.308,0Zm7.107,0a1.153,1.153,0,1,1-2.3,0v-1.136a1.153,1.153,0,1,1,2.3,0Zm0,0" transform="translate(-49.394 -77.573)" fill="#8a6d43"/>
  <path id="Path_154" data-name="Path 154" d="M185.545,166.508l-1.172.315a4.845,4.845,0,0,0-2.033-.55c-1.816,0-3.494,1.074-3.516,3.067v3.01a2.914,2.914,0,0,0,3.01,3.1,2.381,2.381,0,0,0,2.46-1.385l-.1.781v.6a2.074,2.074,0,0,1-2.051,2.344,2.247,2.247,0,0,1-1.953-.781l-.1-.036-.253.134-.04.1a2.569,2.569,0,0,0,2.384,1.682c1.642,0,3.436-.741,3.436-3.791v-8.5l-.076-.1m-1.327,7.267a2.952,2.952,0,0,1-1.78.409,1.99,1.99,0,0,1-2.188-2.069v-2.46a2.03,2.03,0,0,1,2.131-2.091,1.647,1.647,0,0,1,1.816,1.874v4.337Zm0,0" transform="translate(-58.564 -72.11)" fill="#006a3b"/>
  <path id="Path_155" data-name="Path 155" d="M31.193,163.046l.1-.08V161.5l-.1-.076H29.746l-.1.076v1.465l.1.08h1.447" transform="translate(-25.937 -71.05)" fill="#006a3b"/>
  <path id="Path_156" data-name="Path 156" d="M27.993,163.046l.076-.08V161.5l-.076-.076H26.529l-.079.076v1.465l.079.08h1.465" transform="translate(-25.238 -71.05)" fill="#006a3b"/>
  <path id="Path_157" data-name="Path 157" d="M47.469,173.1a5.911,5.911,0,0,1-.6.155,1.69,1.69,0,0,1-.47.08H44.384a1.982,1.982,0,0,1-1.465-.528,2.158,2.158,0,0,1-.507-1.545v-2.224a2.158,2.158,0,0,1,.507-1.545,1.925,1.925,0,0,1,1.465-.528,1.978,1.978,0,0,1,1.425.51,2.083,2.083,0,0,1,.549,1.465l.076.1h1.251l.076-.1v-.2a3.048,3.048,0,0,0-.253-1.309,2.853,2.853,0,0,0-.7-.959,3.206,3.206,0,0,0-1.074-.586,4.745,4.745,0,0,0-2.695,0,3.175,3.175,0,0,0-1.074.586,2.73,2.73,0,0,0-.705.959,3.1,3.1,0,0,0-.253,1.309v2.81a2.954,2.954,0,0,0,.528,1.78H36.922v-7.422l-.076-.08-1.23.177-.079.116v7.227h-4.12V166.05l-.079-.1-1.154.315c-.2-.1-.409-.177-.6-.253a4.65,4.65,0,0,0-.644-.2,3.206,3.206,0,0,0-.763-.08,3.826,3.826,0,0,0-1.27.2,3.107,3.107,0,0,0-1.016.586,2.683,2.683,0,0,0-.684.959,3.383,3.383,0,0,0-.253,1.306v2.992a3.11,3.11,0,0,0,.781,2.3,2.647,2.647,0,0,0,1.935.781,3.558,3.558,0,0,0,1.114-.155,3.224,3.224,0,0,0,.72-.391,2.827,2.827,0,0,0,.412-.452,3.779,3.779,0,0,0,.2-.351l-.079.937v.391H45.888a2.985,2.985,0,0,0,.995-.134,2.919,2.919,0,0,0,.705-.355,1.375,1.375,0,0,0,.43-.466,4.564,4.564,0,0,0,.253-.666l-.079-.293a2.861,2.861,0,0,0-.723.177m-17.46.058c-.079.018-.2.058-.351.1s-.333.1-.51.137-.351.076-.507.116a1.662,1.662,0,0,1-.391.058,2.681,2.681,0,0,1-.723-.1,1.652,1.652,0,0,1-.6-.351,1.5,1.5,0,0,1-.412-.644,2.816,2.816,0,0,1-.156-.959v-2.459a2.179,2.179,0,0,1,.507-1.545,1.754,1.754,0,0,1,1.331-.524,1.625,1.625,0,0,1,1.816,1.856Zm0,0" transform="translate(-24.91 -71.984)" fill="#006a3b"/>
  <path id="Path_158" data-name="Path 158" d="M76.919,163.022l.1-.08v-1.465l-.1-.08H75.473l-.1.08v1.465l.1.08h1.447" transform="translate(-35.938 -71.044)" fill="#006a3b"/>
  <path id="Path_159" data-name="Path 159" d="M80.143,163.022l.079-.08v-1.465l-.079-.08H78.678l-.076.08v1.465l.076.08h1.465" transform="translate(-36.644 -71.044)" fill="#006a3b"/>
  <path id="Path_160" data-name="Path 160" d="M87.252,180.176l-.076.1v1.443l.076.1h1.465l.079-.1v-1.443l-.079-.1H87.252" transform="translate(-38.519 -75.151)" fill="#006a3b"/>
  <path id="Path_161" data-name="Path 161" d="M85.091,171.077v-3.653a3.029,3.029,0,0,0-.253-1.306,2.9,2.9,0,0,0-.7-.959,3.205,3.205,0,0,0-1.074-.586,4.236,4.236,0,0,0-1.349-.2H80.425a3.113,3.113,0,0,0-1.016.137,2.615,2.615,0,0,0-.705.351,1.749,1.749,0,0,0-.467.47,1.9,1.9,0,0,0-.253.506l.076.293c.253-.1.488-.177.723-.253.2-.058.391-.12.586-.177a1.68,1.68,0,0,1,.488-.076h1.874a2.047,2.047,0,0,1,1.465.506,2.159,2.159,0,0,1,.51,1.545v4.235l.018.08H74.056v-7.422l-.076-.08-1.233.177-.076.1V172H68.724v-2.384c0-1.993-1.447-3.067-3.4-3.067s-3.4,1.074-3.4,3.067V172H59.7a1.453,1.453,0,0,1-1.212-.528,2.076,2.076,0,0,1-.525-1.541V159.553l-.079-.076-1.23.173-.079.1v10.605a3.1,3.1,0,0,0,.253,1.309,2.61,2.61,0,0,0,.705.937,2.9,2.9,0,0,0,1.074.586,3.074,3.074,0,0,0,1.151.2h2.423a3.685,3.685,0,0,0,6.33,0H84.447l1.056-.155.076-.1-.43-1.541v-.51m-17.872.781a1.849,1.849,0,0,1-1.99,2.091,1.829,1.829,0,0,1-1.975-2.091V169.9a1.812,1.812,0,0,1,1.975-2.069,1.832,1.832,0,0,1,1.99,2.069Zm0,0" transform="translate(-31.826 -70.624)" fill="#006a3b"/>
  <path id="Path_162" data-name="Path 162" d="M102.779,159.672l-.1.1V169.9a2.087,2.087,0,0,1-.528,1.545,1.938,1.938,0,0,1-1.447.528h-.6l-.155-.55V159.553l-.08-.076-1.23.173-.079.1V171.9l.04.08H97.249a1.718,1.718,0,0,1-.488-.08c-.2-.058-.391-.116-.586-.155-.214-.08-.467-.155-.72-.253l-.079.293a2.112,2.112,0,0,0,.235.644,1.957,1.957,0,0,0,.449.448,2.914,2.914,0,0,0,1.679.506h2.969a4.24,4.24,0,0,0,1.349-.2,3.077,3.077,0,0,0,1.074-.586,2.759,2.759,0,0,0,.7-.937,3.043,3.043,0,0,0,.253-1.309v-10.8l-.076-.076-1.23.2" transform="translate(-40.313 -70.624)" fill="#006a3b"/>
  <path id="Path_163" data-name="Path 163" d="M110.2,159.677l-.1.1v13.4l.076.08h1.252l.076-.08V159.558l-.076-.058-1.23.177" transform="translate(-43.533 -70.629)" fill="#006a3b"/>
  <path id="Path_164" data-name="Path 164" d="M122.068,163.046l.08-.08V161.5l-.08-.076H120.6l-.08.076v1.465l.08.08h1.465" transform="translate(-45.813 -71.05)" fill="#006a3b"/>
  <path id="Path_165" data-name="Path 165" d="M125.29,163.046l.076-.08V161.5l-.076-.076h-1.465l-.1.076v1.465l.1.08h1.465" transform="translate(-46.513 -71.05)" fill="#006a3b"/>
  <path id="Path_166" data-name="Path 166" d="M130.9,180.176l-.08.1v1.443l.08.1h1.465l.1-.1v-1.443l-.1-.1H130.9" transform="translate(-48.066 -75.151)" fill="#006a3b"/>
  <path id="Path_167" data-name="Path 167" d="M134.127,180.176l-.076.1v1.443l.076.1h1.465l.08-.1v-1.443l-.08-.1h-1.465" transform="translate(-48.771 -75.151)" fill="#006a3b"/>
  <path id="Path_168" data-name="Path 168" d="M36.848,180.176l-.1.1v1.443l.1.1h1.447l.1-.1v-1.443l-.1-.1H36.848" transform="translate(-27.49 -75.151)" fill="#006a3b"/>
  <path id="Path_169" data-name="Path 169" d="M40.053,180.176l-.076.1v1.443l.076.1h1.465l.079-.1v-1.443l-.079-.1H40.053" transform="translate(-28.196 -75.151)" fill="#006a3b"/>
  <path id="Path_170" data-name="Path 170" d="M155.068,163.046l.1-.08V161.5l-.1-.076H153.6l-.08.076v1.465l.08.08h1.465" transform="translate(-53.03 -71.05)" fill="#006a3b"/>
  <path id="Path_171" data-name="Path 171" d="M160.568,163.022l.08-.08v-1.465l-.08-.08H159.1l-.08.08v1.465l.08.08h1.465" transform="translate(-54.233 -71.044)" fill="#006a3b"/>
  <path id="Path_172" data-name="Path 172" d="M163.768,163.022l.1-.08v-1.465l-.1-.08h-1.443l-.1.08v1.465l.1.08h1.443" transform="translate(-54.934 -71.044)" fill="#006a3b"/>
  <path id="Path_173" data-name="Path 173" d="M173.382,159.811l-.08.022-.076.076v13.517a3.1,3.1,0,0,0,1.425-2.286V159.58l-.12-.08-1.15.311" transform="translate(-57.34 -70.629)" fill="#006a3b"/>
  <path id="Path_174" data-name="Path 174" d="M158.571,159.58l-.076-.08-1.172.311-.08.022-.076.076v11.564l.155.528h-4.279v-7.422l-.076-.08-1.234.177-.1.1V172H147.5v-7.422l-.1-.08-1.234.177-.076.1V172h-4.16v-2.384c0-1.993-1.447-3.067-3.4-3.067s-3.4,1.074-3.4,3.067V172h-4.12v-7.422l-.1-.08-1.23.177-.08.1V172h-4.12v-7.307l-.1-.076-1.154.311c-.2-.1-.409-.173-.6-.253a4.81,4.81,0,0,0-.644-.2,3.317,3.317,0,0,0-.763-.08,3.93,3.93,0,0,0-1.27.2,3.108,3.108,0,0,0-1.016.586,2.722,2.722,0,0,0-.684.959A3.421,3.421,0,0,0,119,167.45v2.988a3.1,3.1,0,0,0,.781,2.3,2.627,2.627,0,0,0,1.935.781,3.046,3.046,0,0,0,1.11-.173,2.549,2.549,0,0,0,.723-.391,2.818,2.818,0,0,0,.413-.452,2.358,2.358,0,0,0,.2-.329l-.08.759v.546h11.289a3.685,3.685,0,0,0,6.33,0h16.034l1.212-.271.1-.1-.448-1.563-.022-11.972M124.1,171.805c-.076.018-.2.058-.351.1s-.333.1-.506.137-.351.076-.51.116a1.661,1.661,0,0,1-.391.058,2.653,2.653,0,0,1-.72-.1,1.7,1.7,0,0,1-.608-.351,1.533,1.533,0,0,1-.409-.644,2.816,2.816,0,0,1-.155-.959V167.7a2.164,2.164,0,0,1,.506-1.545,1.752,1.752,0,0,1,1.327-.524,1.624,1.624,0,0,1,1.816,1.856Zm16.429.058a1.85,1.85,0,0,1-1.993,2.091,1.826,1.826,0,0,1-1.971-2.091V169.91a1.81,1.81,0,0,1,1.971-2.069,1.833,1.833,0,0,1,1.993,2.069Zm0,0" transform="translate(-45.48 -70.629)" fill="#006a3b"/>
  <path id="Path_175" data-name="Path 175" d="M206.408,68.823c4.456.351,8.634.781,12.522,1.111-3.653-3.32-9.043-6.113-15-7.911-1.527.568-3.067,1.193-4.63,1.856a45.4,45.4,0,0,1,7.107,4.944" transform="translate(-63.042 -49.309)" fill="#c0932d"/>
  <path id="Path_176" data-name="Path 176" d="M165.5,62.023a40.041,40.041,0,0,0-15,7.911c3.849-.33,7.99-.7,12.385-1.013a44.841,44.841,0,0,1,7.245-5.06c-1.581-.644-3.125-1.251-4.63-1.837" transform="translate(-52.369 -49.309)" fill="#c0932d"/>
  <path id="Path_177" data-name="Path 177" d="M174.021,57.183a36.534,36.534,0,0,0-15.373.879c2.8.781,5.686,1.718,8.616,2.832a50.933,50.933,0,0,1,8.279-1.758c-.488-.684-.995-1.328-1.523-1.953" transform="translate(-54.151 -48.158)" fill="#fcb615"/>
  <path id="Path_178" data-name="Path 178" d="M202.178,74.311q1.085,1.872,1.993,3.809a153.581,153.581,0,0,1,15.253,11.817c-1.776-6.409-6.25-13.615-12.989-19.337-2.282-.177-4.608-.354-7.01-.452a44.777,44.777,0,0,1,2.752,4.163" transform="translate(-63.07 -51.086)" fill="#fcb615"/>
  <path id="Path_179" data-name="Path 179" d="M202.908,60.869c2.948-1.111,5.82-2.069,8.612-2.832a36.919,36.919,0,0,0-15.373-.879c-.506.626-1.016,1.291-1.523,1.953a52.586,52.586,0,0,1,8.283,1.758" transform="translate(-62.02 -48.155)" fill="#8a6d43"/>
  <path id="Path_180" data-name="Path 180" d="M169.78,70.324c-2.406.119-4.767.275-7.053.43-6.659,5.7-11.093,12.852-12.851,19.221a147.85,147.85,0,0,1,15.253-11.817,41.735,41.735,0,0,1,1.993-3.809,44.248,44.248,0,0,1,2.659-4.026" transform="translate(-52.232 -51.125)" fill="#8a6d43"/>
  <path id="Path_181" data-name="Path 181" d="M193.193,72.878c-.155-.076-.311-.174-.466-.253.134,1.581.231,3.165.293,4.785,4.9,7.911,11.444,21.388,13.575,29.338a50.094,50.094,0,0,0-3.888-28.127c-3.01-1.993-6.171-3.928-9.513-5.744" transform="translate(-61.605 -51.628)" fill="#619b42"/>
  <path id="Path_182" data-name="Path 182" d="M181.565,54.86c0-.04.04-.156.058-.253A38.539,38.539,0,0,0,170.9,49.449a49.379,49.379,0,0,1,5.8,6.153c1.487.217,3.01.51,4.532.879.116-.565.213-1.093.333-1.621" transform="translate(-56.83 -46.559)" fill="#619b42"/>
  <path id="Path_183" data-name="Path 183" d="M190.273,54.574a.762.762,0,0,1,.062.256c.116.525.231,1.074.329,1.6,1.527-.369,3.049-.662,4.532-.879a49.737,49.737,0,0,1,5.82-6.153,39.1,39.1,0,0,0-10.743,5.176" transform="translate(-61.068 -46.548)" fill="#619b42"/>
  <path id="Path_184" data-name="Path 184" d="M177.669,72.878c-3.338,1.816-6.5,3.751-9.513,5.762a50.227,50.227,0,0,0-3.885,28.126c2.127-7.95,8.67-21.446,13.575-29.356.058-1.621.155-3.223.293-4.785a2.525,2.525,0,0,1-.47.253" transform="translate(-55.26 -51.628)" fill="#619b42"/>
  <path id="Path_185" data-name="Path 185" d="M189.038,53.776a72.676,72.676,0,0,0-2.206-8.026,75.113,75.113,0,0,0-2.206,8.048c.741.488,1.483,1.016,2.206,1.581.741-.586,1.487-1.114,2.206-1.6" transform="translate(-59.833 -45.75)" fill="#006a3b"/>
  <path id="Path_186" data-name="Path 186" d="M186.186,69.926c-1.541,2.322-3.006,4.666-4.355,6.855l-.04.04c-.076,1.544-.116,3.125-.116,4.706,0,11.622,1.7,22.248,4.51,30.51,2.814-8.261,4.514-18.888,4.514-30.51,0-1.581-.04-3.143-.1-4.666l-.022-.021-.04-.058c-1.345-2.188-2.81-4.532-4.355-6.855" transform="translate(-59.188 -51.038)" fill="#006a3b"/>
  <path id="Path_187" data-name="Path 187" d="M174.933,63.057c1.349-.723,2.7-1.367,4.044-1.953-.333-.452-.662-.879-.995-1.331a51.559,51.559,0,0,0-8.283,1.758c1.523.568,3.067,1.193,4.63,1.856.2-.1.391-.232.6-.33" transform="translate(-56.568 -48.817)" fill="#bf7529"/>
  <path id="Path_188" data-name="Path 188" d="M195.949,65.552c.937,1.056,1.856,2.167,2.717,3.339,2.4.119,4.746.275,7.01.452a44.2,44.2,0,0,0-7.107-4.944c-.879.372-1.758.763-2.619,1.154" transform="translate(-62.309 -49.829)" fill="#bf7529"/>
  <path id="Path_189" data-name="Path 189" d="M193.352,61.11c1.345.586,2.695,1.23,4.04,1.953.2.116.391.232.608.351,1.563-.665,3.1-1.27,4.63-1.856a50.892,50.892,0,0,0-8.283-1.758c-.351.43-.684.858-.995,1.309" transform="translate(-61.741 -48.823)" fill="#6d461b"/>
  <path id="Path_190" data-name="Path 190" d="M176.216,65.558c-.879-.391-1.74-.781-2.619-1.132a43.893,43.893,0,0,0-7.245,5.057c2.282-.156,4.626-.311,7.05-.427a34.9,34.9,0,0,1,2.814-3.5" transform="translate(-55.836 -49.835)" fill="#6d461b"/>
  <path id="Path_191" data-name="Path 191" d="M180.841,62.236c-.2-.253-.373-.507-.568-.76-1.345.586-2.695,1.23-4.044,1.953-.2.116-.391.232-.6.351.861.369,1.74.742,2.619,1.132a36.238,36.238,0,0,1,2.6-2.677" transform="translate(-57.864 -49.19)" fill="#6a3515"/>
  <path id="Path_192" data-name="Path 192" d="M195.222,64.913c.879-.391,1.74-.781,2.619-1.132-.2-.119-.391-.235-.608-.351-1.345-.723-2.695-1.367-4.04-1.953-.2.253-.373.507-.568.76.879.839,1.758,1.74,2.6,2.677" transform="translate(-61.582 -49.19)" fill="#6a3515"/>
  <path id="Path_193" data-name="Path 193" d="M182.725,58.979c.04-.272.1-.528.155-.8-1.523-.372-3.045-.665-4.528-.879.524.626,1.013,1.288,1.541,1.953.919-.137,1.877-.217,2.832-.275" transform="translate(-58.461 -48.276)" fill="#5c7233"/>
  <path id="Path_194" data-name="Path 194" d="M197.906,70.1c-1.78-.076-3.6-.156-5.429-.174.058.7.134,1.407.2,2.127.155.079.311.177.466.256,3.342,1.816,6.5,3.748,9.513,5.762a39.115,39.115,0,0,0-1.993-3.809,41.431,41.431,0,0,0-2.753-4.163" transform="translate(-61.55 -51.038)" fill="#5c7233"/>
  <path id="Path_195" data-name="Path 195" d="M192.422,69.04c1.834.018,3.649.1,5.429.174-.861-1.172-1.78-2.283-2.717-3.339-.955.43-1.931.879-2.908,1.349.058.586.134,1.19.2,1.816" transform="translate(-61.495 -50.152)" fill="#544f21"/>
  <path id="Path_196" data-name="Path 196" d="M183.151,59.449c-.955.058-1.9.156-2.85.275.333.43.662.879.995,1.328.568-.235,1.114-.449,1.682-.665.058-.33.1-.644.173-.937" transform="translate(-58.887 -48.746)" fill="#544f21"/>
  <path id="Path_197" data-name="Path 197" d="M183.176,61.1c.018-.159.058-.314.08-.47-.568.214-1.114.43-1.682.665.2.253.373.507.568.76.333-.333.684-.644,1.034-.955" transform="translate(-59.165 -49.003)" fill="#302b13"/>
  <path id="Path_198" data-name="Path 198" d="M192.422,62.449c-.235.333-.488.665-.723,1,.155.995.293,1.99.413,3.006.977-.467,1.953-.919,2.908-1.346-.839-.919-1.718-1.819-2.6-2.658" transform="translate(-61.38 -49.402)" fill="#302b13"/>
  <path id="Path_199" data-name="Path 199" d="M179.405,72.056c.058-.684.12-1.367.2-2.033-1.874.061-3.711.137-5.527.235a47.394,47.394,0,0,0-2.655,4.026,42.463,42.463,0,0,0-1.993,3.809c3.006-2.014,6.171-3.946,9.513-5.762.155-.1.311-.177.466-.275" transform="translate(-56.508 -51.059)" fill="#3b4e26"/>
  <path id="Path_200" data-name="Path 200" d="M190.927,58.979c.955.058,1.891.156,2.832.275.506-.665,1.013-1.309,1.523-1.953-1.487.214-2.988.507-4.532.879.08.253.116.528.177.8" transform="translate(-61.172 -48.276)" fill="#3b4e26"/>
  <path id="Path_201" data-name="Path 201" d="M178.184,65.875a43.555,43.555,0,0,0-2.832,3.476c1.816-.1,3.649-.174,5.527-.235.058-.644.138-1.27.213-1.914-.977-.449-1.953-.9-2.908-1.328" transform="translate(-57.804 -50.152)" fill="#30351b"/>
  <path id="Path_202" data-name="Path 202" d="M192.838,61.028c.329-.452.662-.879.995-1.331-.959-.116-1.9-.214-2.832-.272.058.311.116.6.155.919.546.232,1.114.449,1.682.684" transform="translate(-61.227 -48.741)" fill="#30351b"/>
  <path id="Path_203" data-name="Path 203" d="M191.279,61.1c.351.311.7.623,1.034.955.2-.253.373-.507.568-.76-.568-.235-1.136-.452-1.682-.665a4.408,4.408,0,0,0,.08.47" transform="translate(-61.27 -49.003)" fill="#302814"/>
  <path id="Path_204" data-name="Path 204" d="M182.3,63.465c-.235-.333-.488-.684-.723-1.016-.9.839-1.758,1.74-2.6,2.677q1.432.645,2.93,1.349c.1-1.016.231-2.033.391-3.009" transform="translate(-58.597 -49.402)" fill="#302814"/>
  <path id="Path_205" data-name="Path 205" d="M192.335,62.182c-.333-.333-.684-.644-1.034-.955.116.644.213,1.288.311,1.953.235-.333.47-.665.723-1" transform="translate(-61.293 -49.135)" fill="#162213"/>
  <path id="Path_206" data-name="Path 206" d="M182.3,62.182c.235.333.488.665.723,1.016.1-.665.2-1.328.311-1.972-.351.311-.7.623-1.034.955" transform="translate(-59.324 -49.135)" fill="#162213"/>
  <path id="Path_207" data-name="Path 207" d="M184.516,56.023a1.015,1.015,0,0,0-.058.256c-.12.525-.217,1.074-.333,1.6.546.137,1.114.293,1.66.452.311-.256.626-.488.919-.723-.723-.568-1.447-1.1-2.188-1.584" transform="translate(-59.723 -47.997)" fill="#01542c"/>
  <path id="Path_208" data-name="Path 208" d="M187.477,69.926c1.523,2.344,2.988,4.666,4.355,6.855l.04.058c-.062-1.621-.159-3.223-.293-4.785-1.389-.742-2.756-1.444-4.1-2.127" transform="translate(-60.456 -51.038)" fill="#01542c"/>
  <path id="Path_209" data-name="Path 209" d="M185.742,58.85c-.546-.159-1.114-.314-1.66-.452-.058.275-.1.528-.155.8.488-.04.955-.058,1.443-.058.138-.1.257-.2.373-.293" transform="translate(-59.68 -48.516)" fill="#064321"/>
  <path id="Path_210" data-name="Path 210" d="M187.477,69.921c1.345.684,2.713,1.386,4.1,2.127-.062-.72-.12-1.425-.2-2.127-1.291-.021-2.6-.021-3.906,0" transform="translate(-60.456 -51.033)" fill="#064321"/>
  <path id="Path_211" data-name="Path 211" d="M184.508,60.059c.271-.235.564-.47.839-.684-.488.018-.959.04-1.447.058-.058.314-.116.607-.173.919.253-.1.524-.214.781-.293" transform="translate(-59.636 -48.73)" fill="#0e2b17"/>
  <path id="Path_212" data-name="Path 212" d="M191.383,69.417c-.062-.607-.138-1.212-.2-1.816-1.234.586-2.463,1.172-3.711,1.816v.018c1.306-.04,2.615-.04,3.906-.018" transform="translate(-60.456 -50.529)" fill="#0b2c19"/>
  <path id="Path_213" data-name="Path 213" d="M183.7,60.543a3.43,3.43,0,0,0-.08.47c.293-.256.568-.528.861-.763-.257.079-.528.2-.781.293" transform="translate(-59.614 -48.921)" fill="#0c1c0f"/>
  <path id="Path_214" data-name="Path 214" d="M187.477,68.549c1.248-.623,2.477-1.23,3.711-1.816-.12-1.016-.257-2.029-.413-3.006-1.132,1.581-2.246,3.2-3.3,4.822" transform="translate(-60.456 -49.682)" fill="#0a1d11"/>
  <path id="Path_215" data-name="Path 215" d="M186.219,69.926q-2.051,1.025-4.1,2.109c-.138,1.563-.235,3.165-.293,4.785l.04-.04c1.349-2.188,2.814-4.532,4.355-6.855" transform="translate(-59.22 -51.038)" fill="#01542c"/>
  <path id="Path_216" data-name="Path 216" d="M188.386,58.331c.568-.159,1.114-.314,1.66-.452-.1-.546-.213-1.074-.329-1.6-.022-.061-.04-.159-.062-.256-.741.51-1.465,1.016-2.206,1.584.315.235.626.467.937.723" transform="translate(-60.45 -47.997)" fill="#01542c"/>
  <path id="Path_217" data-name="Path 217" d="M182.2,72.029c1.389-.742,2.734-1.447,4.1-2.13-1.309.021-2.615.061-3.906.1-.076.684-.138,1.349-.2,2.033" transform="translate(-59.302 -51.032)" fill="#0d2d19"/>
  <path id="Path_218" data-name="Path 218" d="M190.468,59.225c-.062-.272-.1-.546-.159-.8-.546.137-1.11.272-1.66.449.12.1.235.2.373.293.47,0,.959.018,1.447.058" transform="translate(-60.712 -48.522)" fill="#0d2d19"/>
  <path id="Path_219" data-name="Path 219" d="M189.941,60.054c.253.1.528.2.8.293-.058-.311-.116-.6-.173-.919-.488-.04-.977-.058-1.465-.076.293.232.564.449.839.7" transform="translate(-60.812 -48.725)" fill="#0d1f12"/>
  <path id="Path_220" data-name="Path 220" d="M186.355,69.4c-1.248-.623-2.481-1.23-3.689-1.794-.08.623-.159,1.27-.217,1.914,1.27-.058,2.579-.079,3.906-.119" transform="translate(-59.357 -50.529)" fill="#0b1f12"/>
  <path id="Path_221" data-name="Path 221" d="M182.7,66.759c1.23.586,2.463,1.172,3.693,1.794-1.074-1.621-2.17-3.241-3.3-4.8-.138.977-.271,1.993-.391,3.009" transform="translate(-59.411 -49.687)" fill="#0c190f"/>
  <path id="Path_222" data-name="Path 222" d="M190.975,60.543c-.253-.1-.528-.2-.8-.293.293.253.586.507.879.781-.04-.177-.058-.333-.08-.488" transform="translate(-61.047 -48.921)" fill="#0e190e"/>
  <path id="Path_223" data-name="Path 223" d="M187.192,59.051h.04c.293-.1.6-.174.9-.253-.311-.253-.622-.488-.937-.723-.311.235-.626.488-.919.723.293.079.608.177.9.253h.018" transform="translate(-60.193 -48.445)" fill="#094722"/>
  <path id="Path_224" data-name="Path 224" d="M187.071,59.253c-.293-.1-.608-.174-.9-.253-.134.1-.253.2-.369.293.43-.018.839-.04,1.27-.04" transform="translate(-60.09 -48.648)" fill="#0c311b"/>
  <path id="Path_225" data-name="Path 225" d="M186.836,59.324c-.43,0-.839.021-1.27.04-.275.235-.568.449-.839.684.72-.253,1.425-.488,2.127-.723h-.018" transform="translate(-59.855 -48.719)" fill="#0e2113"/>
  <path id="Path_226" data-name="Path 226" d="M188.747,59.27c-.12-.1-.235-.2-.373-.293-.293.076-.6.174-.9.253.427.018.857.04,1.27.04" transform="translate(-60.456 -48.643)" fill="#122314"/>
  <path id="Path_227" data-name="Path 227" d="M189.575,60.048c-.275-.235-.546-.47-.839-.684-.43-.018-.843-.04-1.27-.04h-.04c.741.217,1.443.449,2.149.723" transform="translate(-60.445 -48.719)" fill="#0e1b0f"/>
  <path id="Path_228" data-name="Path 228" d="M189.535,60.805c-.293-.256-.586-.528-.879-.781-.706-.256-1.407-.51-2.131-.723-.7.214-1.425.467-2.127.723-.293.253-.568.507-.861.76-.116.644-.213,1.309-.311,1.975,1.132,1.581,2.224,3.2,3.3,4.8h.022c1.074-1.621,2.167-3.241,3.3-4.825-.1-.626-.2-1.288-.311-1.932" transform="translate(-59.527 -48.714)" fill="#090e0a"/>
</svg>
