<svg id="slide-2" xmlns="http://www.w3.org/2000/svg" width="102.984" height="153.486" viewBox="0 0 102.984 153.486">
  <path id="Path_113" data-name="Path 113" d="M264.832,88.776V201.282c0,2.891-1.016,4.453-3.828,4.766a71.5,71.5,0,0,1-8.2.078V93.777c0-3.047,1.094-4.61,3.985-4.922A68.79,68.79,0,0,1,264.832,88.776Z" transform="translate(-161.848 -71.937)" fill="#0e9346" fill-rule="evenodd"/>
  <path id="Path_114" data-name="Path 114" d="M148.351,127.495v101.1c0,3.516-1.484,5.078-5,5.235-1.953.078-3.906,0-5.86.078-.781,0-1.172-.313-1.094-1.094V133.589c0-4.219,1.172-5.86,6.094-6.016C144.288,127.416,146.241,127.495,148.351,127.495Z" transform="translate(-136.387 -80.42)" fill="#0e9346" fill-rule="evenodd"/>
  <path id="Path_115" data-name="Path 115" d="M241.372,102.99c0,.625.078,1.172.078,1.719v99.38c0,3.594-1.484,5.156-5.157,5.313-1.875.078-3.828,0-5.7.078-.859,0-1.172-.313-1.094-1.172a17.606,17.606,0,0,0,0-2.031V108.694c0-3.985,1.25-5.469,5.313-5.7C236.919,102.912,239.028,102.99,241.372,102.99Z" transform="translate(-156.749 -75.057)" fill="#0e9346" fill-rule="evenodd"/>
  <path id="Path_116" data-name="Path 116" d="M195.032,127.563v81.723c0,3.672-1.484,5.235-5.157,5.391-2.109.078-4.141,0-6.25,0a3.515,3.515,0,0,1-.625-.156V133.188c0-3.906,1.094-5.235,4.922-5.7C190.11,127.329,192.454,127.563,195.032,127.563Z" transform="translate(-146.582 -80.41)" fill="#0e9346" fill-rule="evenodd"/>
  <path id="Path_117" data-name="Path 117" d="M218.229,127.5v82.191c0,3.36-1.484,4.922-4.922,5.078-2.031.078-3.985,0-6.016.078-.781,0-1.172-.313-1.094-1.094V133.828c0-4.141.859-6.016,6.25-6.172C214.245,127.5,216.12,127.5,218.229,127.5Z" transform="translate(-151.654 -80.425)" fill="#0e9346" fill-rule="evenodd"/>
  <path id="Path_118" data-name="Path 118" d="M159.7,214.756V133.111c0-3.828.938-5.078,4.766-5.547,2.344-.234,4.688-.078,7.11-.078,0,.547.078,1.094.078,1.563v80.395c0,3.516-1.484,5.078-4.922,5.156C164.466,214.756,162.2,214.756,159.7,214.756Z" transform="translate(-141.486 -80.411)" fill="#0e9346" fill-rule="evenodd"/>
  <path id="Path_119" data-name="Path 119" d="M165.572,115.444a6.119,6.119,0,0,1-6.172-6.094,6.212,6.212,0,1,1,12.422.078A6.122,6.122,0,0,1,165.572,115.444Z" transform="translate(-141.421 -75.088)" fill="#0e9346" fill-rule="evenodd"/>
  <path id="Path_120" data-name="Path 120" d="M212.172,115.422a6.059,6.059,0,0,1-6.172-6.25,6.173,6.173,0,1,1,12.344.156A6.119,6.119,0,0,1,212.172,115.422Z" transform="translate(-151.613 -75.067)" fill="#0e9346" fill-rule="evenodd"/>
  <path id="Path_121" data-name="Path 121" d="M188.85,115.444a6.172,6.172,0,1,1,6.172-6.016A6.054,6.054,0,0,1,188.85,115.444Z" transform="translate(-146.495 -75.088)" fill="#0e9346" fill-rule="evenodd"/>
  <path id="Path_122" data-name="Path 122" d="M241.222,251.872a6.211,6.211,0,1,1-12.422-.078,6.212,6.212,0,0,1,12.422.078Z" transform="translate(-156.599 -106.277)" fill="#0e9346" fill-rule="evenodd"/>
  <path id="Path_123" data-name="Path 123" d="M264.78,79.008h-11.8c-.781-5.782,5.782-12.344,11.8-11.719Z" transform="translate(-161.874 -67.247)" fill="#0e9346" fill-rule="evenodd"/>
</svg>
