<svg xmlns="http://www.w3.org/2000/svg" xmlns:xlink="http://www.w3.org/1999/xlink" width="215.635" height="121.1" viewBox="0 0 215.635 121.1">
  <defs>
    <clipPath id="clip-path">
      <rect id="Rectangle_667" data-name="Rectangle 667" width="215.635" height="121.1" transform="translate(0 0)" fill="#fff" stroke="#707070" stroke-width="1"/>
    </clipPath>
  </defs>
  <g id="slide-3" clip-path="url(#clip-path)">
    <g id="logo.c419e12d" transform="translate(0.086 25.326)">
      <path id="Path_438" data-name="Path 438" d="M1178.35,123.626l1.5,1.328v-60.8l-1.5-.5Z" transform="translate(-1046.115 -56.511)" fill="#3aaad1"/>
      <path id="Path_439" data-name="Path 439" d="M1814.9,362.683Z" transform="translate(-1611.228 -321.983)" fill="none"/>
      <path id="Path_440" data-name="Path 440" d="M438.226,172.618c0-2.824.166-5.648,0-8.307a4.507,4.507,0,0,0-3.985-4.485c-1.827-.166-3.82,0-5.814,0v12.792ZM406.995,157h2.99v15.616H425.1V157c3.985.166,7.808-.5,11.463.5a6.016,6.016,0,0,1,4.319,5.313c.332,4.153,0,8.306,0,12.459H374.1c-5.482,0-6.977-1.5-6.977-6.977V148.034h2.99v21.095c0,2.824.664,3.488,3.488,3.488h13.788V158.334h2.99v14.284h6.811V158.334h3.156v14.284h6.645Z" transform="translate(-325.925 -131.421)" fill="#424c50"/>
      <path id="Path_441" data-name="Path 441" d="M16.613,242.6H32.395V226.987h2.99V245.26H0V242.6H13.788a97.157,97.157,0,0,0-.665-9.968c-.332-1.994-2.159-2.99-4.817-3.156H2.824v-2.492a69.264,69.264,0,0,1,8.307,0c3.323.5,5.15,2.99,5.313,6.479.166,2.326,0,4.817,0,7.143a8.778,8.778,0,0,1,.166,1.994" transform="translate(0 -201.403)" fill="#424c50"/>
      <path id="Path_442" data-name="Path 442" d="M18.425,433.875v16.28H16.431V436.2h-.17c-.166.332-.332.5-.332.831-1.5,4.153-2.99,8.14-4.485,12.294a.972.972,0,0,1-1.328.831H9.288c-.5.166-.831-.166-1-.665-1.5-4.153-3.156-8.472-4.652-12.626a1.259,1.259,0,0,0-.332-.665v13.955H1.48v-16.28H4.636l5.15,14.287a15.684,15.684,0,0,1,.5-1.5c1.5-3.985,2.99-7.974,4.485-12.127a1.106,1.106,0,0,1,1.163-.831,12.571,12.571,0,0,0,2.492.166m51.665,0h1.994c.332,0,.5.332.665.665,2.656,3.985,5.15,7.974,7.808,11.961a2.917,2.917,0,0,0,.665.83v-13.29h1.827v16.28H81.054c-.166,0-.5-.332-.665-.5-2.656-3.985-5.313-7.974-7.808-12.127a10.169,10.169,0,0,0-.665-1v13.623H70.093Zm34.554,1.661v12.958h4.485c2.99-.166,4.652-1.328,4.984-3.821a26.655,26.655,0,0,0,0-5.15,3.891,3.891,0,0,0-3.323-3.655c-1.993-.165-3.986-.165-6.146-.331Zm-1.994-1.5c2.824,0,5.482-.166,8.14,0a5.831,5.831,0,0,1,5.313,4.984,14.509,14.509,0,0,1,0,5.981,6.042,6.042,0,0,1-6.313,5.15c-2.326.166-4.652,0-7.143,0Zm-79.739-.166H24.9v9.968c0,3.488,1.163,4.652,4.652,4.652h3.985V433.875h1.994v16.114a.166.166,0,0,1-.166.166c-2.491,0-4.984.166-7.31,0a4.708,4.708,0,0,1-4.984-4.984c-.332-3.655-.166-7.475-.166-11.3m37.212,2.159h-.166l-2.987,8.141H63.28l-3.156-8.14m-7.642,14.287,6.313-16.28h.166c2.159-.166,2.159-.166,2.824,1.827,1.827,4.485,3.488,8.971,5.313,13.623a6.928,6.928,0,0,1,.332,1H65.6a.749.749,0,0,1-.5-.5c-.332-1-.831-1.994-1.163-3.156-.166-.5-.332-.665-1-.665H56.8a.91.91,0,0,0-1,.665,19.107,19.107,0,0,0-1,2.824c-.166.665-.5.831-1.163.831-.166-.332-.665-.166-1.163-.166m-2.159-16.28V435.7H43.51a2.326,2.326,0,0,0-2.159,2.656,2.438,2.438,0,0,0,2.159,2.656h2.824c3.985.166,4.984,2.492,4.485,5.648a3.655,3.655,0,0,1-3.655,3.488c-2.492.166-5.15,0-7.642,0v-1.661h6.313c2.159,0,2.99-1,2.99-3.156a2.273,2.273,0,0,0-2.492-2.492H43.51c-3.488-.166-4.652-2.326-4.319-5.313a3.488,3.488,0,0,1,3.82-3.488c2.492-.166,4.984,0,7.31,0m49.671,14.121h-10.8v-4.817H99v-2.159H89.361V436.2h9.8v-1.994h-11.8v16.28h12.791Z" transform="translate(-1.314 -385.035)" fill="#424c50"/>
      <path id="Path_443" data-name="Path 443" d="M1355.99,163.41h5.814v-7.974l-5.814,2.492Z" transform="translate(-1203.82 -137.992)" fill="none"/>
      <path id="Path_444" data-name="Path 444" d="M288.832,176.16c-.166,0-.166,0-.166.166v2.824c0,.166,0,.166.166.166h2.492c.166,0,.166,0,.166-.166v-2.824c0-.166,0-.166-.166-.166Z" transform="translate(-256.271 -156.391)" fill="#424c50"/>
      <path id="Path_445" data-name="Path 445" d="M1406.5,65.671h-14.454l-5.814,5.981h0v13.29H1360.32V42.414l21.43-9.469,3.985-1.661-7.143-3.156L1354.5,38.6l.167,46.349,5.648,5.814h0v-.166l.166.166h25.75l5.981,4.652V90.76H1406.5V84.945h-14.287V71.651H1406.5v19.1h0l5.981-5.814V71.485Z" transform="translate(-1202.504 -24.97)" fill="#58abc8"/>
      <path id="Path_446" data-name="Path 446" d="M1573.513,0h0L1566.2,3.156l33.724,14.619h0V25.75h5.981V14.287h0Z" transform="translate(-1390.438)" fill="#b3b2b3"/>
    </g>
  </g>
</svg>
